<?xml version="1.0" encoding="UTF-8" standalone="no"?>
<svg width="128px" height="128px" viewBox="0 0 128 128" version="1.1" xmlns="http://www.w3.org/2000/svg" xmlns:xlink="http://www.w3.org/1999/xlink">
    <!-- Generator: Sketch 3.8.1 (29687) - http://www.bohemiancoding.com/sketch -->
    <title>icon</title>
    <desc>Created with Sketch.</desc>
    <defs></defs>
    <g id="Page-1" stroke="none" stroke-width="1" fill="none" fill-rule="evenodd">
        <g id="icon">
            <g id="Group">
                <path d="M0,0 L128,0 L128,110.495726 L0,128 L0,0 Z" id="Rectangle-1" fill="#EBC800"></path>
                <path d="M14.2222222,93.9279316 L37.7742222,35.008547 L41.5551453,35.008547 L65.1071453,93.9279316 L58.2542222,93.9279316 L39.743453,46.4300855 L20.6812991,93.9279316 L14.2222222,93.9279316 Z M71.3299145,35.008547 L92.9126838,35.008547 C95.3807987,35.008547 97.8882608,35.4155173 100.435145,36.2294701 C102.98203,37.0434229 105.305699,38.2643337 107.406222,39.8922393 C109.506746,41.5201449 111.213395,43.5549963 112.526222,45.9968547 C113.839049,48.4387131 114.495453,51.3137612 114.495453,54.6220855 C114.495453,57.8778966 113.917818,60.7266886 112.76253,63.168547 C111.607242,65.6104054 110.045001,67.6452568 108.075761,69.2731624 C106.10652,70.901068 103.809107,72.1351069 101.183453,72.9753162 C98.5577988,73.8155256 95.8009033,74.2356239 92.9126838,74.2356239 L77.2376068,74.2356239 L77.2376068,93.8491624 L71.3299145,93.8491624 L71.3299145,68.3279316 L92.9126838,68.3279316 C95.0657202,68.3279316 97.1005716,68.0259859 99.0172991,67.4220855 C100.934027,66.818185 102.601292,65.9386041 104.019145,64.7833162 C105.436999,63.6280284 106.552885,62.1970684 107.366838,60.4903932 C108.18079,58.783718 108.587761,56.827635 108.587761,54.6220855 C108.587761,52.0489444 108.088894,49.8696841 107.091145,48.0842393 C106.093397,46.2987945 104.833102,44.8809625 103.310222,43.8307009 C101.787343,42.7804392 100.106949,42.0190109 98.2689915,41.5463932 C96.4310335,41.0737754 94.6456155,40.8374701 92.9126838,40.8374701 L71.3299145,40.8374701 L71.3299145,35.008547 Z" id="AP" fill="#000000"></path>
            </g>
        </g>
    </g>
</svg>